<svg viewBox="0 0 24 24" xmlns="http://www.w3.org/2000/svg"><path d="M9 3.5h6c.8 0 1.4.6 1.4 1.4V6c0 .4-.2.8-.5 1.1l-.7.7H8.8l-.7-.7c-.3-.3-.5-.7-.5-1.1V4.9c0-.8.6-1.4 1.4-1.4z" fill="#374151" stroke="#374151" stroke-width="1.6" stroke-linejoin="round"/><circle cx="10.2" cy="5.7" r=".5" fill="#fff"/><circle cx="12" cy="5.2" r=".5" fill="#fff"/><circle cx="13.8" cy="5.7" r=".5" fill="#fff"/><path d="M8.7 8.3h6.6l.7.7c.7.7 1.1 1.7 1.1 2.7V19c0 1.3-1.1 2.4-2.4 2.4H9.3c-1.3 0-2.4-1.1-2.4-2.4v-7.3c0-1 .4-2 1.1-2.7l.7-.7z" fill="#fff" stroke="#374151" stroke-width="1.6" stroke-linejoin="round"/><path d="M5.2 18.8L18.8 5.2" stroke="#DC2626" stroke-width="2.6" stroke-linecap="round"/></svg>